<?xml version="1.0" encoding="UTF-8" standalone="no"?>
<svg
   xmlns:dc="http://purl.org/dc/elements/1.1/"
   xmlns:cc="http://creativecommons.org/ns#"
   xmlns:rdf="http://www.w3.org/1999/02/22-rdf-syntax-ns#"
   xmlns:svg="http://www.w3.org/2000/svg"
   xmlns="http://www.w3.org/2000/svg"
   viewBox="0 0 368.16 86.360001"
   height="86.360001"
   width="368.16"
   xml:space="preserve"
   id="svg2"
   version="1.1"><metadata
     id="metadata8"><rdf:RDF><cc:Work
         rdf:about=""><dc:format>image/svg+xml</dc:format><dc:type
           rdf:resource="http://purl.org/dc/dcmitype/StillImage" /></cc:Work></rdf:RDF></metadata><defs
     id="defs6" /><g
     transform="matrix(1.3333333,0,0,-1.3333333,0,86.36)"
     id="g10"><g
       transform="scale(0.1)"
       id="g12"><path
         id="path14"
         style="fill:#100f0d;fill-opacity:1;fill-rule:nonzero;stroke:none"
         d="m 776.727,498.328 v -177 c 0,-18.769 -9.547,-21.711 -18.758,-24.648 v -6.258 h 81.699 v 6.258 c -9.199,2.937 -18.781,5.879 -18.781,24.648 v 177 c 0,10.676 3.324,13.242 17.297,13.242 38.269,0 57.039,-0.73 70.656,-22.066 l 4.773,2.926 -15.437,45.265 H 699.082 l -15.449,-45.265 4.785,-2.926 c 16.562,20.965 29.441,22.066 71.016,22.066 13.984,0 17.293,-2.566 17.293,-13.242" /><path
         id="path16"
         style="fill:#100f0d;fill-opacity:1;fill-rule:nonzero;stroke:none"
         d="m 869.836,472.938 c 12.129,-3.309 18.394,-6.25 18.394,-24.645 V 321.328 c 0,-18.769 -6.265,-21.711 -18.394,-24.648 v -6.258 h 154.174 l 17.67,44.156 -4.8,3.313 c -15.44,-20.227 -31.64,-25.032 -52.985,-25.032 h -39.747 c -12.507,0 -15.437,0.383 -15.437,12.524 v 52.984 h 48.191 c 18.782,0 21.711,-4.414 24.668,-15.445 h 7.36 v 52.984 h -7.36 c -2.957,-11.043 -5.886,-15.828 -24.668,-15.828 h -48.191 v 44.52 c 0,9.203 2.93,12.148 15.437,12.148 0,0 30.918,0 33.868,0 21.711,0 33.114,-5.516 49.674,-23.183 l 4.78,3.312 -15.45,42.324 H 869.836 v -6.261" /><path
         id="path18"
         style="fill:#100f0d;fill-opacity:1;fill-rule:nonzero;stroke:none"
         d="m 1314.7,446.453 30.21,-82.43 h -61.64 z m -246.54,4.777 47.12,-66.621 -44.55,-63.281 c -13.6,-19.133 -21.71,-21.711 -34.22,-24.648 v -6.258 h 71.4 v 6.258 c -13.62,2.578 -19.52,7.734 -10.3,22.082 l 31.19,48.765 32.84,-47.293 c 12.13,-17.296 -0.75,-22.089 -11.79,-23.554 v -6.258 h 129.14 v 6.258 c -12.87,2.199 -18.76,6.621 -12.13,24.289 l 8.41,22.078 h 77.33 l 8.09,-22.078 c 5.15,-14.36 3.31,-22.09 -11.78,-24.289 v -6.258 h 79.49 v 6.258 c -9.2,2.937 -17.67,10.672 -21.71,21.336 l -61.46,161.183 h -41.95 L 1244.4,329.055 c -6.28,-15.598 -11.98,-22.934 -18.21,-27.16 -4.86,3.066 -9.33,7.753 -15.26,16.121 l -51.75,73.371 41.83,59.101 c 11.03,15.821 20.23,19.141 31.27,22.45 v 6.261 h -67.35 v -6.261 c 13.99,-1.102 18.05,-8.829 9.94,-20.973 l -29.19,-43.254 -26.36,39.582 c -11.05,16.187 -2.95,22.809 9.2,24.645 v 6.261 h -89.42 v -6.261 c 12.49,-3.309 18.75,-6.993 29.06,-21.708" /><path
         id="path20"
         style="fill:#100f0d;fill-opacity:1;fill-rule:nonzero;stroke:none"
         d="m 1445.68,290.422 c 0,2.945 2.96,9.195 6.62,9.195 8.46,-4.043 22.83,-12.508 49.31,-12.508 44.53,0 75.82,22.09 75.82,59.61 0,35.332 -19.52,49.676 -57.05,58.144 l -34.23,7.735 c -19.5,4.406 -25.75,9.929 -25.75,22.07 0,13.992 11.04,23.184 35.33,23.184 27.22,0 48.57,-12.891 64.02,-30.539 l 4.79,3.312 -13.99,48.574 h -8.83 c 0,-4.043 -1.83,-8.469 -5.51,-8.469 -8.11,4.426 -20.61,11.411 -41.95,11.411 -38.27,0 -68.08,-19.875 -68.08,-55.942 0,-27.597 16.55,-44.883 52.62,-52.976 l 32.39,-7.375 c 21.71,-4.785 29.42,-12.5 29.42,-26.121 0,-18.758 -15.07,-28.704 -39.73,-28.704 -34.6,0 -56.67,18.032 -74.7,39.004 l -4.78,-3.308 15.07,-56.297 h 9.21" /><path
         id="path22"
         style="fill:#100f0d;fill-opacity:1;fill-rule:nonzero;stroke:none"
         d="m 756.172,244.348 c 11.406,-3.325 20.594,-6.262 20.594,-24.66 V 34.2188 c 0,-18.7696 -9.188,-21.6993 -20.594,-24.64849 v -6.25 h 85.383 v 6.25 C 830.137,12.5195 820.93,15.4492 820.93,34.2188 V 219.688 c 0,18.398 9.207,21.335 20.625,24.66 v 6.25 h -85.383 v -6.25" /><path
         id="path24"
         style="fill:#100f0d;fill-opacity:1;fill-rule:nonzero;stroke:none"
         d="m 990.555,185.84 c 11.045,-3.32 17.305,-6.25 17.305,-24.649 V 83.9063 h -1.1 L 911.816,192.09 h -55.554 v -6.25 c 11.035,-4.785 18.386,-8.477 18.386,-24.649 V 34.2188 c 0,-17.6563 -6.261,-21.6993 -18.386,-24.64849 v -6.25 h 62.926 v 6.25 C 909.238,12.5195 899.68,16.5625 899.68,34.2188 V 143.887 h 1.113 L 1026.26,0.742188 h 6.61 V 161.191 c 0,18.399 9.21,21.329 16.57,24.649 v 6.25 h -58.885 v -6.25" /><path
         id="path26"
         style="fill:#100f0d;fill-opacity:1;fill-rule:nonzero;stroke:none"
         d="m 1155.04,117.754 -34.21,7.734 c -19.51,4.414 -25.77,9.922 -25.77,22.071 0,13.984 11.04,23.183 35.33,23.183 27.24,0 48.56,-12.871 64.03,-30.527 l 4.79,3.301 -13.99,48.574 h -8.83 c 0,-4.043 -1.84,-8.457 -5.52,-8.457 -8.1,4.414 -20.6,11.406 -41.94,11.406 -38.28,0 -68.09,-19.883 -68.09,-55.937 0,-27.598 16.56,-44.8832 52.63,-52.9887 l 32.37,-7.3633 c 21.73,-4.7852 29.44,-12.5 29.44,-26.1328 0,-18.75 -15.08,-28.6914 -39.73,-28.6914 -34.59,0 -56.67,18.0273 -74.71,39.0039 l -4.78,-3.3008 15.09,-56.30859 h 9.2 c 0,2.94922 2.93,9.19919 6.61,9.19919 C 1095.44,8.47656 1109.78,0 1136.29,0 c 44.51,0 75.8,22.0898 75.8,59.6289 0,35.3125 -19.51,49.6681 -57.05,58.1251" /><path
         id="path28"
         style="fill:#100f0d;fill-opacity:1;fill-rule:nonzero;stroke:none"
         d="m 1223.12,192.09 -15.09,-48.574 4.77,-3.301 c 20.25,26.855 25.78,29.433 52.63,29.433 9.2,0 12.15,-0.742 12.15,-12.148 V 34.2188 c 0,-18.7696 -5.52,-21.6993 -20.61,-24.64849 v -6.25 h 80.96 v 6.25 C 1323.21,12.5195 1317.3,15.4492 1317.3,34.2188 V 157.5 c 0,11.406 2.96,12.148 12.16,12.148 26.86,0 33.85,-2.578 54.08,-29.433 l 4.8,3.301 -15.08,48.574 h -150.14" /><path
         id="path30"
         style="fill:#100f0d;fill-opacity:1;fill-rule:nonzero;stroke:none"
         d="m 1483.65,103.418 h -32.4 v 50.039 c 0,12.129 2.96,15.449 12.16,15.449 h 20.97 c 22.81,0 36.05,-8.828 36.05,-30.918 0,-23.164 -15.07,-34.57 -36.78,-34.57 z m 67.34,-44.1602 c -11.42,18.3985 -23.2,26.4844 -36.81,29.8047 v 1.0938 c 32.38,5.1562 50.77,22.0897 50.77,49.6877 0,36.797 -29.42,52.246 -76.9,52.246 h -96.77 v -6.25 c 12.15,-3.32 18.4,-6.25 18.4,-24.649 V 34.2188 c 0,-18.7696 -6.25,-21.6993 -18.4,-24.64849 v -6.25 h 79.11 v 6.25 c -11.41,2.94919 -19.14,5.87889 -19.14,24.64849 v 47.1093 h 19.51 c 22.81,0 26.13,-9.1992 40.85,-40.0976 C 1523.75,15.8203 1539.95,0 1570.49,0 c 15.45,0 21.71,2.94922 27.96,6.26953 v 5.15627 c -24.65,3.6719 -32.77,23.9062 -47.46,47.832" /><path
         id="path32"
         style="fill:#100f0d;fill-opacity:1;fill-rule:nonzero;stroke:none"
         d="m 1718.41,185.84 c 9.55,-2.207 18.76,-6.25 18.76,-24.649 V 68.0859 c 0,-30.8984 -11.78,-44.5312 -46.74,-44.5312 -37.16,0 -50.42,13.6328 -50.42,44.5312 v 93.1051 c 0,18.399 7,22.442 18.4,24.649 v 6.25 h -77.26 v -6.25 c 11.4,-1.836 18.75,-6.25 18.75,-24.649 V 65.1367 C 1599.9,14.7266 1643.7,0 1684.91,0 c 46,0 78.76,15.4492 78.76,68.0859 v 93.1051 c 0,18.399 5.52,22.071 16.93,24.649 v 6.25 h -62.19 v -6.25" /><path
         id="path34"
         style="fill:#100f0d;fill-opacity:1;fill-rule:nonzero;stroke:none"
         d="M 1914.16,69.5508 1859.7,192.09 H 1792 v -6.25 c 12.14,-3.32 18.39,-6.25 18.39,-24.649 V 34.2188 c 0,-16.543 -6.99,-20.9571 -18.39,-24.64849 v -6.25 h 59.97 v 6.25 c -12.51,3.32029 -18.02,8.10549 -18.02,24.64849 V 152.715 L 1902.01,0.371094 h 5.17 L 1973.41,152.715 V 34.2188 c 0,-18.7696 -8.11,-22.0704 -17.3,-24.64849 v -6.25 h 77.28 v 6.25 c -12.15,2.94919 -18.41,5.87889 -18.41,24.64849 V 161.191 c 0,18.399 6.26,21.329 18.41,24.649 v 6.25 h -66.6 L 1914.16,69.5508" /><path
         id="path36"
         style="fill:#100f0d;fill-opacity:1;fill-rule:nonzero;stroke:none"
         d="m 2162.19,25.7617 h -39.75 c -12.52,0 -15.46,0.3711 -15.46,12.5196 V 91.25 h 48.21 c 18.77,0 21.7,-4.3945 24.64,-15.4297 h 7.37 v 52.9687 h -7.37 c -2.94,-11.035 -5.87,-15.82 -24.64,-15.82 h -48.21 V 157.5 c 0,9.199 2.94,12.148 15.46,12.148 0,0 30.91,0 33.86,0 21.69,0 33.09,-5.527 49.67,-23.183 l 4.78,3.301 -15.47,42.324 H 2048.1 v -6.25 c 12.13,-3.32 18.41,-6.25 18.41,-24.649 V 34.2188 c 0,-18.7696 -6.28,-21.6993 -18.41,-24.64849 v -6.25 h 154.18 l 17.66,44.16019 -4.77,3.3203 c -15.46,-20.2539 -31.64,-25.0391 -52.98,-25.0391" /><path
         id="path38"
         style="fill:#100f0d;fill-opacity:1;fill-rule:nonzero;stroke:none"
         d="m 2358.69,185.84 c 11.04,-3.32 17.29,-6.25 17.29,-24.649 V 83.9063 h -1.12 L 2279.92,192.09 h -55.56 v -6.25 c 11.03,-4.785 18.41,-8.477 18.41,-24.649 V 34.2188 c 0,-17.6563 -6.26,-21.6993 -18.41,-24.64849 v -6.25 h 62.92 v 6.25 c -9.94,2.94919 -19.51,6.99219 -19.51,24.64849 V 143.887 h 1.1 L 2394.36,0.742188 H 2401 V 161.191 c 0,18.399 9.2,21.329 16.55,24.649 v 6.25 h -58.86 v -6.25" /><path
         id="path40"
         style="fill:#100f0d;fill-opacity:1;fill-rule:nonzero;stroke:none"
         d="m 2434.85,192.09 -15.1,-48.574 4.77,-3.301 c 20.25,26.855 25.78,29.433 52.64,29.433 9.2,0 12.14,-0.742 12.14,-12.148 V 34.2188 c 0,-18.7696 -5.53,-21.6993 -20.6,-24.64849 v -6.25 h 80.97 v 6.25 c -14.74,2.94919 -20.63,5.87889 -20.63,24.64849 V 157.5 c 0,11.406 2.95,12.148 12.14,12.148 26.87,0 33.87,-2.578 54.1,-29.433 l 4.78,3.301 -15.08,48.574 h -150.13" /><path
         id="path42"
         style="fill:#100f0d;fill-opacity:1;fill-rule:nonzero;stroke:none"
         d="m 2704.21,117.754 -34.22,7.734 c -19.51,4.414 -25.77,9.922 -25.77,22.071 0,13.984 11.03,23.183 35.32,23.183 27.22,0 48.57,-12.871 64.03,-30.527 l 4.79,3.301 -14,48.574 h -8.81 c 0,-4.043 -1.87,-8.457 -5.54,-8.457 -8.1,4.414 -20.6,11.406 -41.95,11.406 -38.27,0 -68.05,-19.883 -68.05,-55.937 0,-27.598 16.54,-44.8832 52.61,-52.9887 L 2695,78.75 c 21.7,-4.7852 29.44,-12.5 29.44,-26.1328 0,-18.75 -15.08,-28.6914 -39.74,-28.6914 -34.6,0 -56.68,18.0273 -74.69,39.0039 l -4.81,-3.3008 15.08,-56.30859 h 9.21 c 0,2.94922 2.95,9.19919 6.61,9.19919 C 2644.57,8.47656 2658.94,0 2685.42,0 c 44.52,0 75.82,22.0898 75.82,59.6289 0,35.3125 -19.52,49.6681 -57.03,58.1251" /><path
         id="path44"
         style="fill:#cd1e25;fill-opacity:1;fill-rule:nonzero;stroke:none"
         d="m 439.238,615.449 h -56.183 l -10.75,-54.23 h 56.179 z M 375.41,292.039 424.148,537.773 H 367.969 L 319.246,292.039 Z m 189.121,173.422 v 72.312 H 448.574 l -14.601,-72.96 h 41.711 L 462.305,397.766 H 420.586 L 406.121,325.09 c -1.113,-4.934 -1.933,-8.488 -2.461,-11.914 -3.406,-22.231 6.32,-21.137 37.52,-21.137 l -14.266,-71.473 h -54.578 c -51.606,0 -93.574,0.547 -82.668,53.289 1.711,8.243 3.789,16.235 5.273,24.106 l 19.5,99.805 h -40.105 l 13.406,67.047 h 40.09 l 14.617,72.96 H 304.922 V 647.734 H 166.094 V 423.992 H 0 c 4.10156,-58.008 55.457,-66.433 74.1602,-107.652 12.8789,-28.402 24.1601,-78.324 61.8088,-78.781 28.844,-0.352 28.844,37.293 65.945,37.293 37.078,0 53.555,-70.438 86.524,-128.426 24.726,-45.586 65.8,-76.1135 103.015,-78.6916 30.539,-2.1289 45.324,8.2617 45.324,8.2617 -8.242,16.582 -12.363,33.1249 -12.363,57.9879 0,37.305 28.84,74.532 61.805,99.403 45.324,33.207 94.777,45.636 111.261,49.726 v 116.02 c 0,0 -32.949,17.644 -32.949,66.328" /></g></g></svg>